<?xml version="1.0" encoding="UTF-8"?><svg id="a" xmlns="http://www.w3.org/2000/svg" viewBox="0 0 458.06 149.8"><defs><style>.b{fill:#fff;}</style></defs><path class="b" d="m.12,30.99h20.24s22.2,55.17,22.2,55.17l22.2-55.17h20.24s.12,77.25.12,77.25h-19.62l-.06-39.47-16.04,39.86h-13.68l-16.04-39.86-.06,39.47H0L.12,30.99Z"/><path class="b" d="m97.17,31.01h20.9l17.09,47.83,11.02-47.83h15.28l11.02,47.83,17.03-47.83h20.9l-27.55,77.29h-18.67l-10.38-44.8-10.41,44.8h-18.64l-27.61-77.29Z"/><path class="b" d="m242.49,29.43c7.62,0,14.78,2.17,20.9,5.92,6.29,3.86,11.45,9.42,14.85,16.04,1.43,2.79,2.55,5.76,3.29,8.83.75,3.11,1.15,6.25,1.15,9.39s-.39,6.24-1.15,9.39c-.73,3.03-1.83,6-3.29,8.83-3.4,6.62-8.56,12.18-14.85,16.04-6.11,3.75-13.28,5.92-20.9,5.92h-5.06c-11.06,0-21.11-4.52-28.39-11.79-7.28-7.28-11.8-17.33-11.8-28.39s4.52-21.11,11.8-28.39c7.28-7.28,17.33-11.79,28.39-11.79h0s5.06,0,5.06,0Zm-5.06,19.7c-5.62,0-10.74,2.31-14.46,6.02-3.72,3.72-6.02,8.84-6.02,14.46s2.31,10.74,6.02,14.46c3.72,3.72,8.84,6.02,14.46,6.02h5.06c3.92,0,7.57-1.1,10.66-2.99,3.24-1.99,5.89-4.83,7.62-8.19.73-1.43,1.29-2.95,1.67-4.53.35-1.46.53-3.06.53-4.77s-.18-3.33-.53-4.77c-.39-1.61-.95-3.12-1.67-4.52-1.73-3.36-4.37-6.21-7.62-8.2-3.1-1.9-6.75-3-10.67-3h-5.06Z"/><path class="b" d="m293.44,78.28h0c-3.76-1.19-7.13-3.27-9.85-6-4.39-4.39-7.12-10.46-7.12-17.14,0-6.68,2.73-12.75,7.12-17.14,4.39-4.39,10.46-7.12,17.14-7.12,12.07,0,24,.09,36,.09l-.1,77.26h-19.62s.03-28.84.03-28.84h-1.66s-16.36,28.84-16.36,28.84h-22.58s17-29.96,17-29.96Zm23.63-13.53v-19.21s-11.3,0-11.3,0c-2.62,0-5.02,1.09-6.76,2.84-1.75,1.75-2.84,4.15-2.84,6.77s1.09,5.01,2.84,6.76c1.75,1.75,4.15,2.84,6.76,2.84h11.3Z"/><path class="b" d="m340.64,31.01h19.62l.04,22.71,21.36-22.71h26.73l-28.47,30.41,32.77,46.82h-23.94l-22.53-32.19-5.88,6.28.04,25.91h-19.62l-.12-77.23Z"/><path class="b" d="m432.59,49.52c-2.51-.64-5.08-.77-7.32-.32-1.46.29-2.59.76-3.09,1.39-.25.32-.42.85-.44,1.64-.07,2.31,6.06,5.15,12.25,8.02,12.24,5.68,24.58,11.4,24.06,27.14-.24,7.15-3.21,12.58-7.86,16.44-2.84,2.35-6.23,4-9.94,4.99-3.27.88-6.86,1.24-10.52,1.11-10.62-.36-22.28-5.04-28.9-13.03l15.16-12.54c3,3.62,8.83,5.76,14.36,5.95,1.71.06,3.36-.1,4.83-.5,1.04-.28,1.89-.66,2.48-1.15.46-.38.75-1,.78-1.9.09-2.75-6.32-5.73-12.67-8.67-12.11-5.61-24.12-11.18-23.63-26.48.17-5.26,1.87-9.65,4.67-13.18,3.64-4.59,8.84-7.39,14.63-8.54,5.01-1,10.64-.76,16.02.63,7.3,1.88,14.31,5.92,18.94,11.87l-15.54,12.08h0c-1.87-2.41-4.94-4.1-8.25-4.95Z"/></svg>